<svg xmlns="http://www.w3.org/2000/svg" viewBox="0 0 384 64" preserveAspectRatio="xMinYMin meet" style="display:none;">
	<defs>
		<symbol id="goals-for" viewBox="0 0 64 64" preserveAspectRatio="xMinYMin meet">
			<circle fill="#fff" cx="29.3" cy="35.5" r="27.6"/><path d="M29.1 6.7c-15.8 0-28.6 12.9-28.6 28.7s12.8 28.6 28.6 28.6 28.6-12.8 28.6-28.6-12.8-28.7-28.6-28.7zm23 40.1l-1-2-10.8 1.7-1.7 10.8 2.1 1.1c-3.5 1.7-7.4 2.7-11.5 2.7-3.7 0-7.1-.8-10.3-2.2l1.9-1.1-2.3-10.7-10.8-1.2-.9 2c-2.1-3.7-3.3-8-3.3-12.6v-.8999999999999999l1.8 1.4 9.1-6.1-3-10.5-2.1-.1c3-3.7 7.1-6.6 11.8-8.1l-.7 2.1 8.7 6.6 8.9-6.3-.7-2.4c4.8 1.6 9 4.6 12.1 8.6l-2.3.1-3.1 10.4 9 6.2 1.8-1.4v.4c0 4.2-1 8.1-2.7 11.5zM18.9 31.3l3.9 12.1h12.7l3.9-12.1-10.2-7.4z"/><circle fill="#fff" cx="46.5" cy="16.9" r="16.9"/><path d="M46.5 3c-7.6 0-13.8 6.2-13.8 13.8 0 7.6 6.2 13.8 13.8 13.8 7.6 0 13.8-6.2 13.8-13.8 0-7.6-6.1-13.8-13.8-13.8zm7.7 19.1l-4-4-6.4 6.4-4.8-4.8 6.4-6.4-4-4h12.9v12.8z"/>
		</symbol>
		<symbol id="goals-against" viewBox="0 0 64 64" preserveAspectRatio="xMinYMin meet">
			<circle fill="#fff" cx="34.9" cy="28.9" r="27.6"/><path d="M34.7 57.3c15.8 0 28.6-12.8 28.6-28.6s-12.8-28.7-28.6-28.7c-15.7 0-28.6 12.8-28.6 28.6s12.9 28.7 28.6 28.7zm-22.9-40.1l1 2 10.8-1.7 1.7-10.8-2.1-1.1c3.5-1.7 7.4-2.6 11.5-2.6 3.7 0 7.1.8 10.3 2.2l-1.9 1.1 2.3 10.7 10.9 1.2.9-2c2.1 3.7 3.3 8 3.3 12.6v.8999999999999999l-1.8-1.4-9.1 6.1 3 10.5 2.1.1c-3 3.7-7.1 6.6-11.8 8.1l.7-2.1-8.7-6.6-8.9 6.3.7 2.3c-4.8-1.6-9-4.6-12.1-8.6l2.3-.1 3.1-10.5-9-6.2-1.9 1.4v-.4c0-4.1.9-8 2.7-11.4zM44.9 32.7l-3.9-12.1h-12.6l-3.9 12.1 10.2 7.4z"/><circle fill="#fff" cx="17.4" cy="47.1" r="16.9"/><path d="M17.4 61c7.6 0 13.8-6.2 13.8-13.8 0-7.6-6.2-13.8-13.8-13.8-7.6 0-13.8 6.2-13.8 13.8-.1 7.6 6.1 13.8 13.8 13.8zm-7.7-19.1l4 4 6.4-6.4 4.8 4.8-6.4 6.4 4 4h-12.8v-12.8z"/>
		</symbol>
		<symbol id="goals-diff" viewBox="0 0 64 64" preserveAspectRatio="xMinYMin meet">
			<circle fill="#fff" cx="34" cy="35.4" r="27.6"/><path d="M34.2 6.7c-15.8 0-28.7 12.9-28.7 28.7s12.9 28.6 28.7 28.6 28.6-12.8 28.6-28.6-12.8-28.7-28.6-28.7zm22.9 40.1l-1-2-10.8 1.7-1.7 10.8 2.1 1.1c-3.5 1.6-7.4 2.6-11.5 2.6-3.7 0-7.1-.8-10.3-2.2l1.9-1.1-2.3-10.7-10.9-1.2-.9 2c-2.1-3.7-3.3-8-3.3-12.6v-.8999999999999999l1.8 1.4 9.1-6.1-3-10.5-2.1-.1c3-3.7 7.1-6.6 11.8-8.1l-.6 2.1 8.7 6.6 8.9-6.3-.7-2.3c4.8 1.6 9 4.6 12.1 8.6l-2.3.1-3.1 10.4 9 6.2 1.8-1.4v.4c0 4.2-.9 8.1-2.7 11.5zM24 31.3l3.9 12.1h12.6l3.9-12.1-10.2-7.4z"/><circle fill="#fff" cx="18.2" cy="16.9" r="16.9"/><path fill="#231F20" d="M18.2 3c-7.7 0-13.9 6.2-13.9 13.9s6.2 13.8 13.8 13.8 13.9-6.2 13.9-13.8-6.2-13.9-13.8-13.9zm4.7 19.3c-.3.6-.7 1.2-1.3 1.6-.5.4-1.2.7-1.9 1-.1 0-.2 0-.3.1v2h-1.9v-1.9h-.1c-.6 0-1.1 0-1.5-.1-.5-.1-.9-.2-1.3-.3-.4-.1-.7-.3-.9-.4-.2-.1-.4-.3-.5-.4-.1-.1-.2-.3-.2-.5s-.1-.5-.1-.9v-.6c0-.2 0-.3.1-.4 0-.1.1-.2.1-.2l.2-.1c.1 0 .3.1.5.2s.5.3.8.5c.3.2.7.3 1.2.5.5.1 1 .2 1.6.2.4 0 .7 0 1.1-.1.3-.1.6-.2.8-.4.2-.2.4-.4.5-.6.1-.3.2-.5.2-.9s-.1-.7-.3-.9c-.2-.3-.5-.5-.8-.7-.3-.2-.7-.4-1.1-.6l-1.2-.6c-.4-.2-.8-.4-1.2-.7-.4-.3-.8-.6-1.1-.9-.3-.3-.6-.8-.8-1.2-.2-.5-.3-1-.3-1.7 0-.8.1-1.4.4-2 .3-.6.7-1.1 1.1-1.4.5-.4 1.1-.7 1.7-.9.3-.1.7-.2 1-.2v-2h1.9v2h.2l1.1.2.9.3c.3.1.4.2.5.3.1.1.1.2.2.2l.1.2v1.5c0 .2 0 .3-.1.4 0 .1-.1.2-.1.2-.1.1-.1.1-.2.1s-.2-.1-.4-.2-.4-.2-.7-.4c-.3-.1-.6-.3-1-.4-.4-.1-.8-.2-1.2-.2-.4 0-.7 0-.9.1-.3.1-.5.2-.7.4-.2.2-.3.3-.4.5-.1.2-.1.4-.1.7 0 .4.1.7.3.9.2.3.5.5.8.7.3.2.7.4 1.1.6.4.2.8.4 1.3.6.4.2.8.4 1.3.7.4.3.8.6 1.1.9.3.3.6.8.8 1.2.2.5.3 1 .3 1.7-.1.9-.3 1.6-.6 2.3z"/>
		</symbol>
		<symbol id="player" fill="#221F1F" viewBox="0 0 64 64" preserveAspectRatio="xMinYMin meet">
			<path d="M36.714 26.605c-1.787 0-3.009 1.881-3.009 5.314s1.199 5.337 3.009 5.337c1.81 0 3.009-1.904 3.009-5.337s-1.222-5.314-3.009-5.314zM60.626 16.115c-5.228-1.448-10.398-3.11-15.644-4.483-1.106-.289-2.565.015-3.645.514-4.873 2.252-10.042 2.665-14.777.641-3.465-1.482-6.349-1.315-9.588-.216-1.939.658-3.926 1.175-5.896 1.739-13.202 3.785-10.277 1.553-10.651 14.083-.011.363.017.727-.002 1.089-.127 2.473 1.123 3.271 3.403 2.789 2.828-.598 5.652-1.215 8.865-1.907.665 4.365 1.284 8.409 1.897 12.454.632 4.172 1.321 8.336 1.87 12.518.61 4.643 1.458 5.532 5.781 5.539 6.537.01 13.074.003 19.611.002 6.79 0 6.95-.139 7.848-6.872l.082-1.086c1.098-7.249 2.202-14.497 3.353-22.061l10.484 1.741c0-4.443-.13-8.41.049-12.363.108-2.382-.845-3.513-3.04-4.121zm-33.528 21.635c0 1.811-.611 2.704-1.928 2.704s-1.928-.893-1.928-2.704v-10.65h-.353c-1.669 0-2.563-.611-2.563-1.764 0-1.199.893-1.763 2.704-1.763h1.904c1.599 0 2.163.823 2.163 2.704v11.473zm9.593 3.033c-4.162 0-6.959-3.291-6.959-8.84s2.798-8.84 6.959-8.84 6.983 3.291 6.983 8.84-2.822 8.84-6.983 8.84zM21.557 9.972c.983-.259 2.307.32 3.342.796 5.39 2.479 10.699 2.394 16.115.005 1.287-.568 3.012-.857 4.333-.507 6.021 1.597 11.97 3.467 17.944 5.239l.71-.714c-.826-.868-1.506-2.222-2.503-2.524-6.119-1.848-12.301-3.497-18.49-5.101-.801-.208-1.9-.014-2.635.397-4.971 2.781-9.873 2.707-14.856.044-.764-.407-1.844-.687-2.643-.487-6.555 1.641-13.109 3.306-19.585 5.229-1.271.377-2.201 1.902-3.289 2.897l.672.593c6.955-1.98 13.893-4.026 20.885-5.867zM26.388 6.557c4.281 2.229 8.477 2.196 12.858.174 1.462-.675 3.411-1.073 4.927-.714 6.404 1.52 12.729 3.373 19.082 5.104l.649-.887c-1.143-.786-2.182-1.938-3.446-2.294-6.026-1.7-12.098-3.243-18.192-4.683-.983-.232-2.325.058-3.212.59-4.262 2.555-8.375 2.604-12.563-.143-.714-.468-1.808-.834-2.586-.65-6.798 1.605-13.595 3.242-20.316 5.137-1.312.37-2.297 1.899-3.433 2.893 8.053-1.644 15.484-3.668 22.965-5.487.961-.233 2.263.438 3.267.96z"/>
		</symbol>
		<symbol id="whistle" viewBox="0 0 64 64" preserveAspectRatio="xMinYMin meet">
			<path d="M13.007 22.265c-.609 0-1.215.08-1.802.238-2.152.579-3.909 2.156-4.948 4.442-1.069 2.351-1.251 5.157-.513 7.899 1.274 4.736 5.107 8.174 9.114 8.174.609 0 1.215-.08 1.801-.238 4.515-1.214 6.965-6.751 5.461-12.341-1.273-4.737-5.106-8.174-9.113-8.174zM31.823 12.463c-2.71-.967-6.571-.118-6.571-.118s-12.67 3.732-14.13 4.215c-1.471.487-14.018 3.698-10.504 19.197 3.334 14.704 16.129 13.493 19.514 12.9.458-.08.905-.198 1.344-.352l10.526-3.711c.717-.253 1.51-.172 2.162.22l10.984 6.604c.443.266.991.289 1.454.06l13.299-6.579c.408-.202.727-.548.895-.971l3.161-7.97c.1-.251.015-.538-.204-.695l-31.37-22.497c-.174-.124-.359-.232-.56-.303zm-14.647 32.237c-.755.203-1.535.306-2.318.306-4.969 0-9.506-3.966-11.033-9.646-.857-3.187-.636-6.468.623-9.238 1.289-2.836 3.506-4.803 6.241-5.539.755-.203 1.535-.306 2.318-.306 4.968 0 9.506 3.966 11.033 9.646 1.789 6.649-1.29 13.278-6.864 14.777zm11.035-21.529l-6.205-3.896c-.137-.086-.111-.292.043-.342l10.525-3.411c.257-.083.539-.045.765.103l5.716 3.764c.133.088.107.29-.045.34l-10.451 3.484c-.117.038-.245.023-.348-.042zm30.405 20.647l-10.852 5.353c-.129.066-.274-.053-.234-.192l1.335-4.576c.125-.429.431-.783.838-.969l10.716-4.897c.161-.074.331.083.271.249l-1.224 3.892c-.148.408-.466.941-.85 1.14z"/>
		</symbol>
		<symbol id="field" viewBox="0 0 64 64" preserveAspectRatio="xMinYMin meet">
			<path fill="#231F20" d="M.646 12.65h62.625v39.37h-62.625z"/><path fill="#fff" d="M63.523 12h-63.046c-.264 0-.477.213-.477.477v39.717c0 .263.213.477.477.477h63.047c.263 0 .477-.213.477-.477v-39.717c-.001-.264-.214-.477-.478-.477zm-.172 24.923h-3.94c-.178 0-.321-.144-.321-.321v-8.532c0-.178.144-.321.321-.321h3.906l.034-.007v9.181zm0-9.818l-.034-.007h-4.555c-.178 0-.321.144-.321.321v9.831c0 .178.144.321.321.321h4.59v3.497l-.034-.007h-9c-.355 0-.643-.288-.643-.643v-16.166c0-.355.288-.643.643-.643h9.034v3.496zm-31.17-.974c0-.186.158-.338.343-.321 3.341.3 5.97 3.108 5.97 6.526 0 3.418-2.629 6.227-5.97 6.526-.185.017-.343-.136-.343-.321v-12.41zm-31.532 1.617h3.94c.178 0 .321.144.321.321v8.532c0 .178-.144.321-.321.321h-3.905l-.034.007v-9.181zm0 9.817l.034.007h4.555c.178 0 .321-.144.321-.321v-9.831c0-.178-.144-.321-.321-.321h-4.59v-3.497l.034.007h9c.355 0 .643.288.643.643v16.167c0 .355-.288.643-.643.643h-9.033v-3.497zm0 13.979v-9.833h9.683c.355 0 .643-.288.643-.643v-3.259c0-.247.142-.47.364-.579 1.081-.527 3.272-1.954 3.272-4.856 0-2.976-2.26-4.448-3.283-4.961-.217-.109-.353-.33-.353-.573v-3.237c0-.355-.288-.643-.643-.643h-9.648l-.034.007v-9.841c0-.263.213-.477.477-.477h30.406v12.192c0 .167-.129.302-.295.318-3.649.352-6.512 3.435-6.512 7.175 0 3.74 2.863 6.824 6.512 7.176.166.016.295.151.295.318v12.192h-30.407c-.263.001-.477-.212-.477-.476zm10.327-15.964v-6.477c0-.524.6-.836 1.019-.521.921.693 1.967 1.897 1.967 3.793 0 1.894-1.043 3.065-1.976 3.734-.422.302-1.01-.01-1.01-.529zm20.555 2.944c0 .189-.162.342-.35.321-3.264-.375-5.808-3.147-5.808-6.509 0-3.362 2.545-6.134 5.808-6.509.188-.022.35.132.35.321v12.376zm31.343 13.497h-30.693v-12.18c0-.17.133-.306.302-.319 3.72-.282 6.66-3.397 6.66-7.187 0-3.79-2.941-6.905-6.66-7.187-.169-.013-.302-.149-.302-.319v-12.18h30.693c.263 0 .477.213.477.477v9.834h-9.683c-.355 0-.643.288-.643.643v3.259c0 .247-.142.47-.364.579-1.081.527-3.272 1.954-3.272 4.856 0 2.976 2.26 4.448 3.283 4.961.217.109.353.33.353.573v3.237c0 .355.288.643.643.643h9.649l.034-.007v9.84c0 .264-.214.477-.477.477zm-9.85-16.453c0 .524-.6.836-1.019.521-.921-.693-1.967-1.897-1.967-3.793 0-1.894 1.043-3.065 1.976-3.734.422-.303 1.011.008 1.011.528l-.001 6.478z"/>
		</symbol>
		<symbol id="ball" viewBox="0 0 64 64" preserveAspectRatio="xMinYMin meet">
			<path d="M32,0C14.3,0,0,14.4,0,32.1S14.3,64,32,64s32-14.3,32-31.9S49.7,0,32,0z M57.7,44.8l-1.1-2.2l-12.1,1.9l-1.9,12.1l2.3,1.2
            	c-3.9,1.9-8.3,3-12.9,3c-4.1,0-7.9-0.9-11.5-2.5l2.1-1.2l-2.6-12L8.1,43.8L7,46c-2.3-4.1-3.7-8.9-3.7-14.1v-1l2,1.6l10.2-6.8
            	L12.2,14l-2.3-0.1c3.4-4.1,7.9-7.4,13.2-9l-0.8,2.3l9.7,7.4l10-7l-0.8-2.7c5.4,1.8,10.1,5.1,13.5,9.6l-2.6,0.1l-3.5,11.6l10.1,6.9
            	l2-1.6v0.4C60.8,36.6,59.6,41,57.7,44.8z M20.6,27.5L25,41h14.2l4.4-13.5l-11.4-8.3L20.6,27.5z"/>
		</symbol>
		<symbol id="arrow-up" viewBox="0 0 64 64" preserveAspectRatio="xMinYMin meet">
			<path d="M43.7,18.5l18.1-6.6L64,31.7l-4.9-3.1c-0.5-0.3-1.2-0.2-1.6,0.3L43.1,48.2c-0.8,1.1-2.4,1.4-3.6,0.7
            	l-13.1-8.1c-1.2-0.7-2.7-0.8-4-0.1L0,53l21.8-24.9c0.7-0.8,1.8-0.9,2.7-0.4L38.1,36c0.5,0.3,1.2,0.2,1.6-0.3l8.9-12.3
            	c0.4-0.5,0.2-1.2-0.2-1.5L43.7,18.5z"/>
		</symbol>
		<symbol id="smile-sad" viewBox="0 0 64 64" preserveAspectRatio="xMinYMin meet">
			<path d="M32,64C14.3,64,0,49.7,0,32C0,14.3,14.3,0,32,0c17.7,0,32,14.3,32,32C64,49.7,49.7,64,32,64L32,64z M21.2,15.2
            		c-2.2,0-4,2.4-4,5.3c0,2.9,1.8,5.3,4,5.3s4-2.4,4-5.3C25.2,17.6,23.4,15.2,21.2,15.2L21.2,15.2z M42.5,15.2c-2.2,0-4,2.4-4,5.3
            		c0,2.9,1.8,5.3,4,5.3c2.2,0,4-2.4,4-5.3C46.5,17.6,44.7,15.2,42.5,15.2L42.5,15.2z M31.8,38.7c-12.6,0-16.2,11.1-16.2,11.1
            		s3.8-6.5,16.2-6.5c12.3,0,15.9,6.8,15.9,6.8S44.5,38.7,31.8,38.7L31.8,38.7z"/>
		</symbol>

	</defs>
</svg>