<svg xmlns="http://www.w3.org/2000/svg" height="898.46" width="718.6" xmlns:xlink="http://www.w3.org/1999/xlink"><defs><linearGradient id="a"><stop stop-color="#d7df23" offset="0"/><stop stop-color="#002c00" offset=".365"/><stop stop-color="#003f00" offset="1"/></linearGradient><linearGradient id="b"><stop stop-color="#d7df23" offset="0"/><stop stop-color="#94bf00" offset=".258"/><stop stop-color="#005d00" offset="1"/></linearGradient><radialGradient id="k" gradientUnits="userSpaceOnUse" cy="655.76" cx="256.16" gradientTransform="matrix(1.64 1.021 -.754 1.211 330.693 -428.473)" r="47.959"><stop stop-color="#d7df23" offset="0"/><stop stop-color="#94bf00" offset=".347"/><stop stop-color="#005d00" offset="1"/></radialGradient><radialGradient id="l" gradientUnits="userSpaceOnUse" cy="591.73" cx="421.98" gradientTransform="matrix(1.38 .433 -.349 1.113 57.706 -244.553)" r="120.46"><stop stop-color="#d7df23" offset="0"/><stop stop-color="#94bf00" offset=".523"/><stop stop-color="#005d00" offset="1"/></radialGradient><radialGradient id="m" gradientUnits="userSpaceOnUse" cy="409.96" cx="427.89" gradientTransform="matrix(.517 -.774 1.12 .747 -262.1 426.618)" r="167.52"><stop stop-color="#fff200" offset="0"/><stop stop-color="#ffe700" offset=".449"/><stop stop-color="#fcc20e" offset=".702"/><stop stop-color="#f99d1c" offset="1"/></radialGradient><radialGradient id="h" gradientUnits="userSpaceOnUse" cy="593.47" cx="416.43" gradientTransform="matrix(1.612 .611 -.478 1.261 28.675 -409.296)" r="120.46"><stop stop-color="#d7df23" offset="0"/><stop stop-color="#002c00" offset=".961"/><stop stop-color="#003f00" offset="1"/></radialGradient><radialGradient id="g" gradientUnits="userSpaceOnUse" cy="664.36" cx="261.15" gradientTransform="matrix(2.109 0 0 2.633 -289.65 -1104.348)" r="47.959"><stop stop-color="#d7df23" offset="0"/><stop stop-color="#002c00" offset=".942"/><stop stop-color="#003f00" offset="1"/></radialGradient><radialGradient id="p" gradientUnits="userSpaceOnUse" cy="218.64" cx="354.74" gradientTransform="matrix(1.103 -.01 .01 1.127 -40.481 -30.523)" r="133.59"><stop stop-color="#d7df23" offset="0"/><stop stop-color="#94bf00" offset=".495"/><stop stop-color="#005d00" offset="1"/></radialGradient><radialGradient id="q" gradientUnits="userSpaceOnUse" cy="273.79" cx="401.45" gradientTransform="matrix(1.718 .012 -.013 1.965 -278.918 -289.673)" r="79.484"><stop stop-color="#d7df23" offset="0"/><stop stop-color="#94bf00" offset=".632"/><stop stop-color="#005d00" offset="1"/></radialGradient><radialGradient id="d" gradientUnits="userSpaceOnUse" cy="213.2" cx="313.8" gradientTransform="matrix(.692 .435 -.92 1.461 287.433 -239.099)" r="133.59"><stop stop-color="#d7df23" offset="0"/><stop stop-color="#002c00" offset=".757"/><stop stop-color="#003f00" offset="1"/></radialGradient><radialGradient id="c" gradientUnits="userSpaceOnUse" cy="284.14" cx="434.69" gradientTransform="matrix(2.039 0 0 1.965 -422.017 -281.777)" r="79.484"><stop stop-color="#d7df23" offset="0"/><stop stop-color="#002c00" offset=".792"/><stop stop-color="#003f00" offset="1"/></radialGradient><radialGradient id="n" gradientUnits="userSpaceOnUse" cy="320.11" cx="428.88" gradientTransform="matrix(2.067 0 0 2.315 -457.643 -420.86)" r="33.432"><stop stop-color="#eb0000" offset="0"/><stop stop-color="#d20000" offset=".43"/><stop stop-color="#ac0000" offset="1"/></radialGradient><radialGradient id="f" gradientUnits="userSpaceOnUse" cy="306.86" cx="474.57" gradientTransform="matrix(1.42 0 0 2.133 -199.352 -347.738)" r="19.714"><stop stop-color="#eb0000" offset="0"/><stop stop-color="#d20000" offset=".578"/><stop stop-color="#ac0000" offset="1"/></radialGradient><radialGradient id="o" gradientUnits="userSpaceOnUse" cy="290.75" cx="502.49" gradientTransform="matrix(2.098 0 0 2.717 -551.619 -499.308)" r="9.865"><stop stop-color="#eb0000" offset="0"/><stop stop-color="#d20000" offset=".661"/><stop stop-color="#ac0000" offset="1"/></radialGradient><radialGradient id="e" gradientUnits="userSpaceOnUse" cy="275.08" cx="535.42" gradientTransform="matrix(1.382 0 0 1.429 -204.475 -118.144)" r="19.183"><stop stop-color="#eb0000" offset="0"/><stop stop-color="#d20000" offset=".674"/><stop stop-color="#ac0000" offset="1"/></radialGradient><radialGradient id="i" xlink:href="#a" gradientUnits="userSpaceOnUse" cy="915.94" cx="373.45" gradientTransform="matrix(1 0 0 .564 2.7 400.712)" r="150.72"/><radialGradient id="j" xlink:href="#b" gradientUnits="userSpaceOnUse" cy="867.61" cx="374.21" gradientTransform="matrix(1.377 0 0 .527 -141.996 431.42)" r="150.72"/></defs><g><path fill="url(#c)" d="M438.434 213.833c-1.204-2.841-1.273-4.324-.431-9.324 1.149-6.82 3.786-13.462 7.036-17.724 1.238-1.623 6.581-5.846 11.873-9.384 17.193-11.495 27.974-23.803 37.335-42.622 7.209-14.493 9.989-24.709 5.025-18.468-3.715 4.671-8.524 9.39-15.929 15.63-10.43 8.79-11.9 10.201-16.563 15.902-6.917 8.455-13.269 17.848-23.456 34.685-5.397 8.919-11.706 18.16-14.021 20.536-8.226 8.441-18.689 11.344-23.504 6.521-7.046-7.058 2.083-29.541 18.844-46.413 7.929-7.982 9.506-9.104 21.447-15.258 14.586-7.518 19.98-11.865 25.43-20.495 5.258-8.325 14.338-29.47 13.161-30.647-.549-.549-14.352 8.283-22.652 14.493-15.864 11.871-25.331 22.679-41.278 47.122-14.47 22.18-29.623 36.786-37.474 36.123-2.345-.198-3.488-.865-4.322-2.522-2.598-5.162-.752-16.903 4.428-28.172 4.438-9.654 16.396-22.313 34.08-36.078 21.023-16.363 28.271-22.661 34.687-30.137 5.159-6.011 12.131-17.494 12.131-19.977 0-.571-1.723.128-3.829 1.553-2.106 1.425-7.478 4.514-11.937 6.865-10.217 5.386-15.867 9.743-24.403 18.817-6.267 6.662-10.168 11.652-25.458 32.569-6.404 8.761-12.664 13.97-16.805 13.983-5.239.017-7.154-3.297-7.007-12.126.187-11.166 4.442-21.556 16.788-40.991 25.296-39.82 53.627-61.514 75.14-57.538 10.482 1.938 18.191 7.68 28.862 21.497 23.951 31.014 37.942 64.84 38.167 92.277.131 15.99-2.84 22.048-15.111 30.804-13.136 9.373-33.411 15.544-38.601 11.748-3.776-2.761.249-7.991 14.246-18.512 13.138-9.875 19.78-18.443 23.854-30.774 2.138-6.471 4.869-19.857 4.19-20.536-1.361-1.361-18.757 21.398-35.42 46.339-11.488 17.195-16.094 23.271-22.178 29.256-10.103 9.94-16.673 14.357-21.356 14.357-3.257 0-3.68-.286-4.991-3.378z"/><path d="M193.274 245.033c-8.187-8.804-16.055-45.817-12.551-75.379 4.876-41.142 18.65-71.593 42.774-102.58 15.089-19.378 40.671-38.204 67.57-50.242 13.405-5.999 23.183-9.922 36.685-12.365 9.349-1.691 15.055-2.274 36.091-2.276 25.588-.002 32.089 1.839 47.934 5.845 13.943 3.525 34.275 12.922 38.909 19.798 2.613 3.877.059 10.761-3.221 13.198-2.299 1.708-5.01 2.844-16.139 2.819-14.38-.032-20.376-1.259-45.12-9.548-19.502-6.533-29.749-6.134-49.259-5.36-12.021.477-43.086-.748-44.006.122-.669.632 7.313 1.724 12.397 3.007 12.094 3.05 39.614 4.425 70.348 4.469 21.822.031 26.172 3.372 32.185 9.563 9.422 9.701 5.473 21.817-6.097 25.66-8.536 2.835-27.11 2.884-43.205-1.575-2.725-.755-13.642-4.164-22.313-6.797-26.95-8.184-31.695-9.055-45.837-10.186-9.749-.779-28.297-.947-31.178 1.481-1.03.868 17.972 6.54 25.759 8.58 12.571 3.293 34.097 6.768 61.934 7.819l16.589 1.852 9.162 3.623c6.95 4.45 10.477 10.127 11.857 14.733.889 2.967.785 6.483-.74 9.444-4.008 7.782-20.883 14.269-37.108 12.189-9.917-1.272-13.929-4.518-25.968-10.551-11.695-5.861-19.876-9.176-30.216-11.197-15.048-2.942-30.83-4.354-47.102.221l-9.34 3.294 4.858 4.27c16.451 5.794 35.752 9.02 84.956 11.752 13.463.748 22.21 3.002 30.96 8.854 7.798 5.215 10.031 11.605 10.031 15.884 0 9.58-15.897 13.417-55.351 9.09-12.691-1.392-33.498-.887-43.915 1.463-26.629 6.007-43.102 20.975-51.437 43.396-1.738 4.676-2.303 6.96-2.161 17.108.265 18.95-5.681 33.125-10.689 38.525-2.896 3.123-5.135 3.12-8.048-.012z" fill="url(#d)"/><path fill="url(#e)" d="M525.004 242.433c-.445-.445-.694-2.723-.694-6.358 0-4.894-.157-5.822-1.156-6.821-1.474-1.474-3.651-1.449-6.936.08-6.173 2.872-9.833 1.256-9.819-4.335.019-7.352 6.254-18.635 15.487-28.026 5.601-5.697 9.335-8.256 12.581-8.622 2.332-.263 2.567-.157 3.68 1.669 1.573 2.581 1.586 8.546.037 16.979-1.585 8.629-1.718 8.092 2.002 8.092 6.139 0 6.102 2.86-.091 7.019-1.961 1.317-3.839 2.488-4.172 2.601-.333.113-1.264 3.442-2.069 7.398-.805 3.956-1.864 7.804-2.354 8.552-1.432 2.186-5.084 3.181-6.495 1.77zm.842-24.473c2.822-1.654 4.374-4.155 4.452-7.179.071-2.74-1.249-5.804-2.502-5.804-1.193 0-6.978 5.921-8.319 8.514-2.711 5.242.821 7.72 6.368 4.469z"/><path fill="url(#f)" d="M459.284 274.213c-9.088-3.21-14.297-13.696-14.264-28.713.027-12.187 5.064-21.066 13.806-24.336 11.227-4.2 21.983 3.727 24.762 18.248 1.665 8.705.896 17.209-2.152 23.778-1.865 4.02-7.172 9.025-11.147 10.512-3.495 1.308-8.139 1.523-11.006.511zm9.948-15.461c1.02-.622 2.42-2.239 3.111-3.592 1.086-2.13 1.209-3.062.911-6.929-.19-2.457-.71-5.327-1.157-6.377-2.77-6.505-10.795-6.689-13.407-.308-.595 1.453-1.116 4.68-1.286 7.953-.278 5.373-.245 5.554 1.329 7.425.887 1.055 2.155 2.137 2.817 2.404 2.146.868 5.759.598 7.683-.576z"/><path d="M284.744 663.603c-23.837-4.537-42.235-10.158-56.098-17.139-10.665-5.371-15.191-8.618-20.524-14.725-7.995-9.154-5.915-15.179 6.202-17.964 15.635-3.594 30.211-17.809 48.462-38.496 6.131-6.949 11.06-10.4 10.5-8.171-3.542 14.113-1.791 46.819 1.071 60.325 3.391 16.005 10.32 27.391 20.678 34.482 7.011 4.799 5.891 5.359-10.292 1.688z" fill="url(#g)"/><path d="M356.854 667.703c-38.263-2.539-60.653-17.019-68.177-44.093-3.197-11.503-3.399-33.409-.513-55.447 2.122-16.2 3.834-23.718 9.246-40.592 7.587-23.656 9.162-33.647 9.109-57.787-.059-26.332-3.371-43.742-8.937-57.065-1.053-2.52-3.956-8.033-2.51-9.707.817-.946 19.651 24.973 27.368 39.749 6.777 12.975 38.841 83.315 42.046 92.235 5.848 16.279 17.347 36.446 29.112 51.055 14.139 17.557 38.485 32.628 58.729 36.353 15.801 2.908 46.444 2.891 61.928-.034 6.582-1.243 12.269-1.958 12.639-1.589 1.22 1.22-4.541 9.18-10.334 14.279-15.906 14.001-46.642 24.569-86.833 29.857-18.79 2.472-56.101 3.898-72.874 2.785z" fill="url(#h)"/><path d="M374.574 521.043c-30.669-64.085-55.577-108.89-72.367-130.17-3.337-4.231-19.746-21.786-36.464-39.011-41.126-42.375-44.793-46.735-54.661-64.991-10.492-19.411-11.937-39.404-2.848-39.404 8.163 0 14.574 7.444 26.205 30.428 12.288 24.281 20.791 37.174 31.835 48.27 10.957 11.009 17.949 14.817 28.616 15.585l7.652.551-2.066-3.186c-10.56-16.29-29.14-37.95-51.35-59.88-17.73-17.52-19.91-20.09-23.3-27.48-5.266-11.467-7.392-18.162-8.079-25.451-1.064-11.273 4.484-20.625 12.219-20.601 9.005.028 23.693 11.314 31.862 24.481 4.942 7.965 12.359 23.916 14.928 32.102 2.34 7.455 12.708 28.115 18.751 37.363 10.879 16.648 32.752 41.759 34.688 39.823 1.286-1.286-6.399-22.978-12.135-34.256-7.407-14.563-13.221-23.433-31.383-47.875-8.309-11.181-16.14-22.381-17.404-24.888-6.566-13.024-9.45-34.284-6.314-46.541 3.353-13.104 10.287-16.003 20.062-8.388 6.995 5.449 10.541 10.665 17.435 25.64 6.163 13.387 6.943 16.163 9.897 35.234 3.909 25.236 11.36 39.579 37.806 72.774 4.748 5.96 9.532 12.358 10.63 14.217 2.362 3.999 5.121 4.578 4.326.907-2.319-10.709-4.662-19.143-7.405-26.648-3.321-9.086-15.023-32.164-25.075-49.451-20.247-34.819-21.232-37.706-20.699-60.695.344-14.852.599-16.587 3.008-20.462 1.448-2.329 4.167-5.17 6.044-6.315 11.366-6.931 22.332 4.517 24.844 25.933 2.972 25.347 14.659 58.007 30.973 86.561 8.002 14.005 14.088 21.236 22.762 27.042 13.969 9.351 28.03 12.581 42.193 9.693 4.697-.958 11.245-2.98 14.55-4.493 9.745-4.462 22.158-14.535 28.534-23.157 3.167-4.283 8.804-10.606 12.525-14.052 13.519-12.516 34.856-24.463 40.099-22.452 6.7 2.571-5.719 24.623-29.925 53.138-27.062 31.879-43.595 59.033-53.819 88.396-5.938 17.054-18.01 39.749-18.828 73.499-69.759-75.504-14.394 145.58-58.326 58.196z" fill="#f99d1c"/><path d="M236.254 897.813c-3.309-.843-6.026-2.504-9.043-5.531-10.315-10.348-14.359-32.437-9.692-52.942 1.325-5.821 4.335-13.334 7.293-18.204l1.276-2.1 2.465.227c4.641.428 13.446 1.902 17.494 2.929 12.011 3.046 19.516 7.588 22.296 13.493.992 2.107 1.065 2.524 1.018 5.779-.072 4.972-.84 6.213-5.383 8.706-1.283.704-2.334 1.364-2.336 1.466-.001.102 1.739 1.036 3.867 2.076 10.544 5.151 14.257 9.483 15.446 18.019.477 3.423.475 4.224-.02 8.26-.439 3.58-.742 4.826-1.522 6.258-3.032 5.57-12.127 9.767-24.694 11.396-5.112.662-16.129.762-18.466.167zm12.834-15.462c2.216-.818 5.47-3.168 6.899-4.983 4.786-6.08 3.325-11.495-3.688-13.663-2.992-.925-8.397-1.418-12.505-1.141l-3.334.225-.218 1.943c-.302 2.698-.312 7.92-.017 9.943.379 2.608 1.946 5.76 3.422 6.886 2.451 1.87 5.763 2.147 9.441.789zm-4.583-34.185c2.214-.949 3.798-2.092 5.008-3.615 3.089-3.887 1.307-7.863-4.488-10.011-2.796-1.036-9.052-2.389-9.359-2.023-.376.448-1.33 3.319-1.864 5.612-1.29 5.532-.069 9.279 3.445 10.573 1.744.642 5.087.396 7.259-.535z" fill="url(#i)"/><path d="M302.644 898.323c-2.308-.345-3.944-1.091-5.133-2.338-.822-.863-1.03-1.468-1.289-3.748-.777-6.84-1.211-9.786-3.282-22.269-2.981-17.97-3.724-24.08-3.531-29.067.154-3.992.553-5.457 1.912-7.006 1.237-1.411 4.552-.296 8.036 2.704 2.492 2.146 3.696 2.611 6.761 2.611 2.587 0 3.18-.163 10.021-2.759 3.759-1.426 7.01-2.124 9.894-2.124 2.846 0 4.333.542 5.593 2.039 2.536 3.014 1.136 9.021-2.63 11.28-.791.474-3.618 1.719-6.282 2.766-5.502 2.162-7.71 3.637-9.557 6.388-1.624 2.418-2.417 4.986-2.73 8.842-.222 2.735-.049 4.505 1.416 14.533 1.67 11.427 1.736 12.708.749 14.541-1.429 2.653-5.778 4.23-9.947 3.607z" fill="url(#i)"/><path d="M336.904 897.343c-2.766-1.277-4.146-3.819-4.755-8.763-.816-6.63 1.122-20.784 3.777-27.584 2.269-5.81 5.617-12.531 8.059-16.177 2.408-3.596 6.064-7.24 8.396-8.369 7.281-3.525 14.954 1.817 24.277 16.899 13.676 22.125 17.661 30.313 18.109 37.208.219 3.373-.345 5.036-1.996 5.89-1.957 1.012-4.093.223-8.982-3.319-5.291-3.833-9.513-5.422-13.362-5.027-2.684.275-4.983 1.064-9.036 3.101-10.961 5.507-20.615 7.928-24.488 6.141zm23.846-24.647c3.054-1.003 4.701-2.532 4.701-4.366 0-.856-.293-1.8-.779-2.509-.84-1.226-3.92-3.227-6.828-4.435l-1.811-.753-2.321 2.241c-1.277 1.232-2.661 2.922-3.077 3.754-.918 1.837-.983 4.029-.15 5.029 1.502 1.805 6.415 2.302 10.264 1.038z" fill="url(#i)"/><path d="M415.934 897.963c-6.068-.502-9.257-1.71-11.181-4.232-2.181-2.859-.068-5.212 5.213-5.804 4.404-.494 7.524-2.762 9.382-6.819.901-1.968 1.411-5.795.993-7.459-.288-1.148-2.748-2.67-10.12-6.26-3.258-1.587-6.786-3.437-7.841-4.111-2.785-1.782-5.61-4.812-6.868-7.367-1.023-2.079-1.081-2.392-.893-4.874.732-9.674 11.669-17.335 25.695-17.997 4.535-.214 7.653.168 10.718 1.315 2.019.755 3.97 2.337 3.97 3.219 0 1.003-2.472 3.311-4.628 4.321-1.166.546-3.288 1.265-4.715 1.597-1.427.332-3.108.839-3.735 1.127-3.353 1.538-2.54 6.451 1.699 10.262 1.836 1.651 4.066 2.822 10.248 5.382 4.307 1.784 9.556 5.194 11.048 7.18 2.645 3.519 3.397 8.349 1.923 12.35-1.823 4.946-6.236 10.364-11.172 13.716-6.288 4.27-10.5 5.221-19.736 4.456z" fill="url(#i)"/><path d="M464.064 897.763c-2.229-.78-4.322-2.325-4.939-3.646-.457-.978-.568-4.83-.783-27.119-.187-19.424-.15-26.167.15-26.727 1.041-1.946 5.242-2.499 9.722-1.281 3.274.89 7.737 3.103 8.795 4.361l.912 1.084-.096 23.405-.096 23.405-1.027 1.854c-1.252 2.26-3.196 3.983-5.303 4.701-2.001.682-5.325.664-7.336-.039z" fill="url(#i)"/><path d="M468.314 835.553c-8.003-2.078-10.481-4.562-10.604-10.631-.059-2.882.817-4.592 3.068-5.99 1.52-.944 1.941-1.038 4.64-1.035 3.371.004 5.604.791 7.53 2.655 1.23 1.191 1.584 1.945 2.32 4.954.928 3.789 1.03 5.841.389 7.772-.992 2.987-2.636 3.496-7.343 2.274z" fill="url(#i)"/><path d="M499.184 897.673c-3.177-.773-6.339-3.096-7.641-5.615-1.019-1.971-2.206-8.857-2.63-15.262-.468-7.072.033-24.189.934-31.914 1.357-11.623 2.642-16.387 5.675-21.026 2.708-4.143 5.705-6.264 8.853-6.266 4.285-.003 7.44 3.983 7.439 9.398 0 1.278-.234 3.646-.52 5.264-.705 3.987-1.774 12.317-2.309 17.993-.47 4.988-.624 28.576-.196 30.142.193.708.681 1.062 2.258 1.636 2.22.81 4.661 2.702 5.449 4.225.865 1.672.66 4.17-.469 5.726-1.996 2.753-4.724 4.537-8.452 5.529-1.9.506-6.612.6-8.389.168z" fill="url(#i)"/><path d="M273.214 790.203h-17.1l-3.202-18.082c-1.358-7.473-2.783-15.671-3.038-19.59h-.088c-.191 3.135-1.532 11.457-3.061 19.59l-3.3 18.082h-17.424l-15.094-62.321h16.867l3.514 16.788c2.935 14.051 3.471 20.109 3.564 22.465h.098c.345-5.043 1.429-12.805 3.135-21.998l3.188-17.253h17.808l4.017 20.817c.874 4.736 2.132 10.72 2.499 18.332h.088c.372-5.537 2.242-17.598 3.519-23.711l3.095-15.437h17.086l-16.169 62.319z" fill-rule="evenodd" clip-rule="evenodd" fill="#00296d"/><path d="M322.264 778.653c-6.616 0-10.461-3.936-10.461-19.83 0-11.893 3.037-19.514 10.292-19.514 6.868 0 9.91 3.74 9.91 19.309.002 15.995-2.954 20.035-9.741 20.035zm-.283 12.619c22.284 0 27.904-16.75 27.904-34.646 0-13.67-6.17-29.853-27.342-29.853-16.457 0-28.621 11.661-28.621 33.836 0 18.675 10.037 30.663 28.059 30.663z" fill-rule="evenodd" clip-rule="evenodd" fill="#00296d"/><path d="M381.124 741.023c5.024 0 7.421 1.425 7.421 5.908 0 4.207-1.889 6.747-7.314 6.747h-4.56v-12.657h4.453v.002zm27.904 49.18c-2.034-4.672-7.352-16.238-9.382-20.39-1.532-3.238-4.121-6.096-6.273-6.702 7.328-1.256 12.976-6.709 12.976-17.477 0-10.358-5.927-17.755-24.233-17.755h-21.446v62.321h15.997v-24.688c3.49 0 4.927.781 7.347 7.221l6.513 17.467h18.499v.002z" fill-rule="evenodd" clip-rule="evenodd" fill="#00296d"/><path fill-rule="evenodd" clip-rule="evenodd" fill="#00296d" d="M420.05 790.037v-62.313h16.174v49.045h23.129l-4.978 13.268z"/><path d="M499.694 757.373c0 17.243-3.564 19.459-8.05 19.459h-5.351v-35.809h4.941c4.812 0 8.46 1.851 8.46 16.35zm17.608.512c0-12.657-3.09-21.265-10.163-26.151-4.998-3.481-10.544-3.852-14.842-3.852h-21.998v62.321h22.603c8.412 0 13.41-2.783 17.327-7.547 5.687-6.689 7.073-15.111 7.073-24.771z" fill-rule="evenodd" clip-rule="evenodd" fill="#00296d"/><path d="M583.764 791.273c-7.723 0-14.694-2.328-20.4-8.617-4.941-5.453-7.157-13.577-7.157-22.418 0-7.807 1.239-13.679 4.3-19.318 5.267-9.753 14.275-14.146 25.191-14.146 6.337 0 13.048 1.806 15.94 4.588l-6.84 11.781c-2.764-2.123-5.863-3.285-9.279-3.285-2.783 0-5.37.689-6.99 2.411-3.006 3.135-4.029 6.318-4.029 13.67 0 10.265.474 15.216 3.061 18.277 2.075 2.392 4.617 3.871 7.957 3.871 4.012 0 7.249-.967 10.711-4.121l6.897 10.925c-3.926 3.693-10.263 6.382-19.363 6.382z" fill-rule="evenodd" clip-rule="evenodd" fill="#00296d"/><path d="M659.754 770.973c0 5.37-.186 7.771-1.527 10.275-2.587 5.174-9.567 10.032-21.905 10.032-9.808 0-16.657-2.69-20.39-7.781-2.318-3.416-3.006-4.941-3.006-13.26v-42.35h16.09v40.685c0 5.687 1.749 9.52 7.39 9.52 5.732 0 7.352-3.183 7.352-9.296v-40.909h15.997v43.084z" fill-rule="evenodd" clip-rule="evenodd" fill="#00296d"/><path d="M694.744 741.023c3.843 0 6.468.967 6.468 6.142 0 6.794-2.344 8.133-7.39 8.133h-4.624v-14.275h5.546zm23.852 6.234c0-14.191-9.241-19.375-25.098-19.375h-20.297v62.321h15.997v-22.186h4.989c20.397.002 24.409-11.566 24.409-20.759z" fill-rule="evenodd" clip-rule="evenodd" fill="#00296d"/><path fill-rule="evenodd" clip-rule="evenodd" fill="#00296d" d="M19.66 741.349h23.058l5.074-13.53h-47.831v62.218h19.699v-22.534h13.649l5.336-13.577h-18.985z"/><path fill-rule="evenodd" clip-rule="evenodd" fill="#00296d" d="M54.247 727.819l-.048 62.218h19.366v-62.218z"/><path d="M146.914 727.983l-22.446 62.219h18.839l2.411-8.412h21.91l2.49 8.412h19.399l-22.501-62.219h-20.102zm2.244 41.876l7.459-25.879 7.797 25.879h-15.256z" fill-rule="evenodd" clip-rule="evenodd" fill="#00296d"/><path fill-rule="evenodd" clip-rule="evenodd" fill="#00296d" d="M107.127 790.037v-22.534h13.673l5.312-13.577h-18.985v-12.577h23.129l5.05-13.53h-47.831v62.218z"/><path fill="url(#j)" d="M233.554 896.313c-3.309-.843-6.026-2.504-9.043-5.531-10.315-10.348-14.359-32.437-9.692-52.942 1.325-5.821 4.335-13.334 7.293-18.204l1.276-2.1 2.465.227c4.641.428 13.446 1.902 17.494 2.929 12.011 3.046 19.516 7.588 22.296 13.493.992 2.107 1.065 2.524 1.018 5.779-.072 4.972-.84 6.213-5.383 8.706-1.283.704-2.334 1.364-2.336 1.466-.001.102 1.739 1.036 3.867 2.076 10.544 5.151 14.257 9.483 15.446 18.019.477 3.423.475 4.224-.02 8.26-.439 3.58-.742 4.826-1.522 6.258-3.032 5.57-12.127 9.767-24.694 11.396-5.112.662-16.129.762-18.466.167zm12.834-15.462c2.216-.818 5.47-3.168 6.899-4.983 4.786-6.08 3.325-11.495-3.688-13.663-2.992-.925-8.397-1.418-12.505-1.141l-3.334.225-.218 1.943c-.302 2.698-.312 7.92-.017 9.943.379 2.608 1.946 5.76 3.422 6.886 2.451 1.87 5.763 2.147 9.441.789zm-4.583-34.185c2.214-.949 3.798-2.092 5.008-3.615 3.089-3.887 1.307-7.863-4.488-10.011-2.796-1.036-9.052-2.389-9.359-2.023-.376.448-1.33 3.319-1.864 5.612-1.29 5.532-.069 9.279 3.445 10.573 1.744.642 5.087.396 7.259-.535z"/><path fill="url(#j)" d="M299.944 896.823c-2.308-.345-3.944-1.091-5.133-2.338-.822-.863-1.03-1.468-1.289-3.748-.777-6.84-1.211-9.786-3.282-22.269-2.981-17.97-3.724-24.08-3.531-29.067.154-3.992.553-5.457 1.912-7.006 1.237-1.411 4.552-.296 8.036 2.704 2.492 2.146 3.696 2.611 6.761 2.611 2.587 0 3.18-.163 10.021-2.759 3.759-1.426 7.01-2.124 9.894-2.124 2.846 0 4.333.542 5.593 2.039 2.536 3.014 1.136 9.021-2.63 11.28-.791.474-3.618 1.719-6.282 2.766-5.502 2.162-7.71 3.637-9.557 6.388-1.624 2.418-2.417 4.986-2.73 8.842-.222 2.735-.049 4.505 1.416 14.533 1.67 11.427 1.736 12.708.749 14.541-1.429 2.653-5.778 4.23-9.947 3.607z"/><path fill="url(#j)" d="M334.204 895.843c-2.766-1.277-4.146-3.819-4.755-8.763-.816-6.63 1.122-20.784 3.777-27.584 2.269-5.81 5.617-12.531 8.059-16.177 2.408-3.596 6.064-7.24 8.396-8.369 7.281-3.525 14.954 1.817 24.277 16.899 13.676 22.125 17.661 30.313 18.109 37.208.219 3.373-.345 5.036-1.996 5.89-1.957 1.012-4.093.223-8.982-3.319-5.291-3.833-9.513-5.422-13.362-5.027-2.684.275-4.983 1.064-9.036 3.101-10.961 5.507-20.615 7.928-24.488 6.141zm23.846-24.647c3.054-1.003 4.701-2.532 4.701-4.366 0-.856-.293-1.8-.779-2.509-.84-1.226-3.92-3.227-6.828-4.435l-1.811-.753-2.321 2.241c-1.277 1.232-2.661 2.922-3.077 3.754-.918 1.837-.983 4.029-.15 5.029 1.502 1.805 6.415 2.302 10.264 1.038z"/><path fill="url(#j)" d="M413.234 896.463c-6.068-.502-9.257-1.71-11.181-4.232-2.181-2.859-.068-5.212 5.213-5.804 4.404-.494 7.524-2.762 9.382-6.819.901-1.968 1.411-5.795.993-7.459-.288-1.148-2.748-2.67-10.12-6.26-3.258-1.587-6.786-3.437-7.841-4.111-2.785-1.782-5.61-4.812-6.868-7.367-1.023-2.079-1.081-2.392-.893-4.874.732-9.674 11.669-17.335 25.695-17.997 4.535-.214 7.653.168 10.718 1.315 2.019.755 3.97 2.337 3.97 3.219 0 1.003-2.472 3.311-4.628 4.321-1.166.546-3.288 1.265-4.715 1.597-1.427.332-3.108.839-3.735 1.127-3.353 1.538-2.54 6.451 1.699 10.262 1.836 1.651 4.066 2.822 10.248 5.382 4.307 1.784 9.556 5.194 11.048 7.18 2.645 3.519 3.397 8.349 1.923 12.35-1.823 4.946-6.236 10.364-11.172 13.716-6.288 4.27-10.5 5.221-19.736 4.456z"/><path fill="url(#j)" d="M461.364 896.263c-2.229-.78-4.322-2.325-4.939-3.646-.457-.978-.568-4.83-.783-27.119-.187-19.424-.15-26.167.15-26.727 1.041-1.946 5.242-2.499 9.722-1.281 3.274.89 7.737 3.103 8.795 4.361l.912 1.084-.096 23.405-.096 23.405-1.027 1.854c-1.252 2.26-3.196 3.983-5.303 4.701-2.001.682-5.325.664-7.336-.039z"/><path fill="url(#j)" d="M465.614 834.053c-8.003-2.078-10.481-4.562-10.604-10.631-.059-2.882.817-4.592 3.068-5.99 1.52-.944 1.941-1.038 4.64-1.035 3.371.004 5.604.791 7.53 2.655 1.23 1.191 1.584 1.945 2.32 4.954.928 3.789 1.03 5.841.389 7.772-.992 2.987-2.636 3.496-7.343 2.274z"/><path fill="url(#j)" d="M496.484 896.173c-3.177-.773-6.339-3.096-7.641-5.615-1.019-1.971-2.206-8.857-2.63-15.262-.468-7.072.033-24.189.934-31.914 1.357-11.623 2.642-16.387 5.675-21.026 2.708-4.143 5.705-6.264 8.853-6.266 4.285-.003 7.44 3.983 7.439 9.398 0 1.278-.234 3.646-.52 5.264-.705 3.987-1.774 12.317-2.309 17.993-.47 4.988-.624 28.576-.196 30.142.193.708.681 1.062 2.258 1.636 2.22.81 4.661 2.702 5.449 4.225.865 1.672.66 4.17-.469 5.726-1.996 2.753-4.724 4.537-8.452 5.529-1.9.506-6.612.6-8.389.168z"/><path fill="url(#k)" d="M279.744 663.603c-23.837-4.537-42.235-10.158-56.098-17.139-10.665-5.371-15.191-8.618-20.524-14.725-7.995-9.154-5.915-15.179 6.202-17.964 15.635-3.594 35.474-17.809 53.725-38.496 6.131-6.949 8.314-8.799 7.754-6.569-3.542 14.113-4.308 45.217-1.447 58.723 3.391 16.005 10.266 27.47 20.678 34.482 7.058 4.753 6.386 4.863-10.292 1.688z"/><path fill="url(#l)" d="M355.654 670.703c-38.263-2.539-60.653-17.019-68.177-44.093-3.197-11.503-3.399-33.409-.513-55.447 2.122-16.2 3.834-23.718 9.246-40.592 7.587-23.656 9.162-33.647 9.109-57.787-.059-26.332-3.599-51.294-9.166-64.616-1.053-2.52-1.667-4.829-1.365-5.131.884-.884 18.736 27.947 26.453 42.724 6.777 12.975 38.841 83.315 42.046 92.235 5.848 16.279 17.347 36.446 29.112 51.055 14.139 17.557 38.485 32.628 58.729 36.353 15.801 2.908 46.444 2.891 61.928-.034 6.582-1.243 12.269-1.958 12.639-1.589 1.22 1.22-4.541 9.18-10.334 14.279-15.906 14.001-46.642 24.569-86.833 29.857-18.79 2.472-56.101 3.898-72.874 2.785z"/><path fill="url(#m)" d="M474.554 618.103c-23.469-3.346-45.994-14.415-61.123-30.036-14.806-15.287-20.378-24.31-38.855-62.919-30.669-64.085-55.577-108.89-72.367-130.17-3.337-4.231-19.746-21.786-36.464-39.011-41.126-42.375-44.793-46.735-54.661-64.991-10.492-19.411-11.937-39.404-2.848-39.404 8.163 0 14.574 7.444 26.205 30.428 12.288 24.281 20.791 37.174 31.835 48.27 10.957 11.009 17.949 14.817 28.616 15.585l7.652.551-2.066-3.186c-10.553-16.275-29.128-37.937-51.338-59.871-17.734-17.514-19.916-20.085-23.309-27.473-5.266-11.467-7.392-18.162-8.079-25.451-1.064-11.273 4.484-20.625 12.219-20.601 9.005.028 23.693 11.314 31.862 24.481 4.942 7.965 12.359 23.916 14.928 32.102 2.34 7.455 12.708 28.115 18.751 37.363 10.879 16.648 32.752 41.759 34.688 39.823 1.286-1.286-6.399-22.978-12.135-34.256-7.407-14.563-13.221-23.433-31.383-47.875-8.309-11.181-16.14-22.381-17.404-24.888-6.566-13.024-9.45-34.284-6.314-46.541 3.353-13.104 10.287-16.003 20.062-8.388 6.995 5.449 10.541 10.665 17.435 25.64 6.163 13.387 6.943 16.163 9.897 35.234 3.909 25.236 11.36 39.579 37.806 72.774 4.748 5.96 9.532 12.358 10.63 14.217 2.362 3.999 5.121 4.578 4.326.907-2.319-10.709-4.662-19.143-7.405-26.648-3.321-9.086-15.023-32.164-25.075-49.451-20.247-34.819-21.232-37.706-20.699-60.695.344-14.852.599-16.587 3.008-20.462 1.448-2.329 4.167-5.17 6.044-6.315 11.366-6.931 22.332 4.517 24.844 25.933 2.972 25.347 14.659 58.007 30.973 86.561 8.002 14.005 14.088 21.236 22.762 27.042 13.969 9.351 28.03 12.581 42.193 9.693 4.697-.958 11.245-2.98 14.55-4.493 9.745-4.462 22.158-14.535 28.534-23.157 3.167-4.283 8.804-10.606 12.525-14.052 13.519-12.516 34.856-24.463 40.099-22.452 6.7 2.571-5.719 24.623-29.925 53.138-27.062 31.879-43.595 59.033-53.819 88.396-5.938 17.054-8.957 39.749-9.774 73.499-.672 27.717.85 44.318 5.814 63.425 9.101 35.026 29.456 60.512 65.252 81.699l8.199 4.853-4.353.73c-9.995 1.676-32.057 1.908-42.314.445z"/><path fill="url(#n)" d="M423.154 301.223c-11.782-1.488-19.267-4.042-22.823-7.785-1.532-1.613-1.748-2.289-1.938-6.058-.142-2.805.107-5.348.734-7.505.828-2.847 1.633-3.942 6.32-8.591 2.954-2.931 6.047-6.239 6.873-7.352 3.782-5.096 7.944-15.772 7.944-20.377 0-2.388-.277-3.111-1.762-4.595-1.531-1.531-2.062-1.722-4.045-1.456-3.163.424-8.836 3.206-13.066 6.407-5.926 4.485-9.686 5.471-12.479 3.274-3.573-2.811-4.381-8.548-1.741-12.371 3.7-5.359 15.021-12.463 23.187-14.55 2.974-.76 4.339-.824 7.129-.332 16.19 2.852 24.418 17.976 18.767 34.498-1.755 5.133-2.51 6.581-6.846 13.147-12.625 19.113-9.136 23.369 9.9 12.078 8.103-4.806 10.599-4.775 12.483.158 1.258 3.295.871 5.266-1.835 9.343-3.786 5.704-12.908 11.917-18.451 12.569-1.255.147-5.013-.077-8.352-.499z"/><path fill="url(#o)" d="M492.584 257.143c-1.976-1.639-2.428-6.148-2.32-23.133.115-18.087.173-17.858-4.6-18.167-2.627-.17-2.686-.217-2.857-2.261-.323-3.864 5.069-8.254 10.992-8.95 3.96-.465 6.24.607 7.741 3.642 1.012 2.046 1.074 3.633.919 23.58-.1 12.891-.408 22.148-.774 23.302-.373 1.172-1.162 2.125-2.035 2.457-2.279.866-5.733.637-7.067-.469z"/><path d="M192.674 242.833c-8.187-8.804-16.055-45.817-12.551-75.379 4.876-41.142 18.65-71.593 42.774-102.58 15.089-19.378 40.671-38.204 67.57-50.242 13.405-5.999 23.183-9.922 36.685-12.365 9.349-1.691 15.055-2.274 36.091-2.276 25.588-.002 32.089 1.839 47.934 5.845 13.943 3.525 34.275 12.922 38.909 19.798 2.613 3.877.059 10.761-3.221 13.198-2.299 1.708-5.01 2.844-16.139 2.819-14.38-.032-20.376-1.259-45.12-9.548-19.502-6.533-29.749-6.134-49.259-5.36-12.021.477-43.086-.748-44.006.122-.669.632 7.313 1.724 12.397 3.007 12.094 3.05 39.614 4.425 70.348 4.469 21.822.031 26.172 3.372 32.185 9.563 9.422 9.701 5.473 21.817-6.097 25.66-8.536 2.835-27.11 2.884-43.205-1.575-2.725-.755-13.642-4.164-22.313-6.797-26.95-8.184-31.695-9.055-45.837-10.186-9.749-.779-28.297-.947-31.178 1.481-1.03.868 17.972 6.54 25.759 8.58 12.571 3.293 34.097 6.768 61.934 7.819l16.589 1.852 9.162 3.623c6.95 4.45 10.477 10.127 11.857 14.733.889 2.967.785 6.483-.74 9.444-4.008 7.782-20.883 14.269-37.108 12.189-9.917-1.272-13.929-4.518-25.968-10.551-11.695-5.861-19.876-9.176-30.216-11.197-15.048-2.942-30.83-4.354-47.102.221l-9.34 3.294 4.858 4.27c16.451 5.794 35.752 9.02 84.956 11.752 13.463.748 22.21 3.002 30.96 8.854 7.798 5.215 10.031 11.605 10.031 15.884 0 9.58-15.897 13.417-55.351 9.09-12.691-1.392-33.498-.887-43.915 1.463-26.629 6.007-43.102 20.975-51.437 43.396-1.738 4.676-2.303 6.96-2.161 17.108.265 18.95-5.681 33.125-10.689 38.525-2.896 3.123-5.135 3.12-8.048-.012z" fill="url(#p)"/><path fill="url(#q)" d="M438.434 210.933c-1.204-2.841-1.273-4.324-.431-9.324 1.149-6.82 3.786-13.462 7.036-17.724 1.238-1.623 6.581-5.846 11.873-9.384 17.193-11.495 27.974-23.803 37.335-42.622 7.209-14.493 9.989-24.709 5.025-18.468-3.715 4.671-8.524 9.39-15.929 15.63-10.43 8.79-11.9 10.201-16.563 15.902-6.917 8.455-13.269 17.848-23.456 34.685-5.397 8.919-11.706 18.16-14.021 20.536-8.226 8.441-18.689 11.344-23.504 6.521-7.046-7.058 2.083-29.541 18.844-46.413 7.929-7.982 9.506-9.104 21.447-15.258 14.586-7.518 19.98-11.865 25.43-20.495 5.258-8.325 14.338-29.47 13.161-30.647-.549-.549-14.352 8.283-22.652 14.493-15.864 11.871-25.331 22.679-41.278 47.122-14.47 22.18-29.623 36.786-37.474 36.123-2.345-.198-3.488-.865-4.322-2.522-2.598-5.162-.752-16.903 4.428-28.172 4.438-9.654 16.396-22.313 34.08-36.078 21.023-16.363 28.271-22.661 34.687-30.137 5.159-6.011 12.131-17.494 12.131-19.977 0-.571-1.723.128-3.829 1.553-2.106 1.425-7.478 4.514-11.937 6.865-10.217 5.386-15.867 9.743-24.403 18.817-6.267 6.662-10.168 11.652-25.458 32.569-6.404 8.761-12.664 13.97-16.805 13.983-5.239.017-7.154-3.297-7.007-12.126.187-11.166 4.442-21.556 16.788-40.991 25.296-39.82 53.627-61.514 75.14-57.538 10.482 1.938 18.191 7.68 28.862 21.497 23.951 31.014 37.942 64.84 38.167 92.277.131 15.99-2.84 22.048-15.111 30.804-13.136 9.373-33.411 15.544-38.601 11.748-3.776-2.761.249-7.991 14.246-18.512 13.138-9.875 19.78-18.443 23.854-30.774 2.138-6.471 4.869-19.857 4.19-20.536-1.361-1.361-18.757 21.398-35.42 46.339-11.488 17.195-16.094 23.271-22.178 29.256-10.103 9.94-16.673 14.357-21.356 14.357-3.257 0-3.68-.286-4.991-3.378z"/></g></svg>